# xmcd
#
# Track frame offsets: 
#        150
#        16875
#        37121
#        67487
#        87137
#        107889
#        124539
#        152176
#        170843
#        187903
#        212111
#        230154
#
# Disc length: 3195 seconds
#
# Revision: 0
# Processed by: cddbd v1.5.2PL0 Copyright (c) Steve Scherf et al.
# Submitted via: ExactAudioCopyFreeDBPlugin 1.0
#
DISCID=ac0c790c
DTITLE=Kozmic Blue - Home
DYEAR=2011
DGENRE=Blues
TTITLE0=As Mean As Me
TTITLE1=I've Been Lovin You Too Long
TTITLE2=Love Is Good For Me
TTITLE3=So Long
TTITLE4=Home
TTITLE5=I Believe In Love
TTITLE6=I Could Not Follow You
TTITLE7=I Got The Music
TTITLE8=I Got You
TTITLE9=Higher
TTITLE10=Little Song
TTITLE11=Drown In My Own Tears
EXTD=
EXTT0=
EXTT1=
EXTT2=
EXTT3=
EXTT4=
EXTT5=
EXTT6=
EXTT7=
EXTT8=
EXTT9=
EXTT10=
EXTT11=
PLAYORDER=
